<?xml version="1.0" encoding="UTF-8" standalone="no"?>
<!DOCTYPE svg PUBLIC "-//W3C//DTD SVG 1.1//EN" "http://www.w3.org/Graphics/SVG/1.1/DTD/svg11.dtd">
<svg width="100%" height="100%" viewBox="0 0 300 400" version="1.1" xmlns="http://www.w3.org/2000/svg" xmlns:xlink="http://www.w3.org/1999/xlink" xml:space="preserve" style="fill-rule:evenodd;clip-rule:evenodd;stroke-linejoin:round;stroke-miterlimit:1.41421;">
    <g transform="matrix(1.19047,0,0,1.19047,-30.583,-47.3345)">
        <path d="M157.752,213.804C156.733,213.613 155.951,213.518 155.407,213.518C154.91,213.518 154.226,213.705 153.356,214.077C152.486,214.45 151.554,214.823 150.559,215.196C149.565,215.569 148.539,215.911 147.483,216.222C146.426,216.532 145.525,216.688 144.779,216.688C144.779,219.671 144.872,223.431 145.059,227.968C145.245,232.505 145.587,237.819 146.084,243.91C149.068,242.543 151.119,241.859 152.237,241.859C152.983,241.859 153.947,241.984 155.128,242.232C156.308,242.481 157.52,242.761 158.763,243.071C160.006,243.382 161.218,243.662 162.399,243.91C163.58,244.159 164.544,244.283 165.289,244.283C170.262,244.283 174.364,232.35 177.595,208.484C179.833,190.957 180.952,176.351 180.952,164.667C180.952,162.305 176.663,157.643 168.086,150.682C158.639,142.976 152.735,135.02 150.373,126.816C160.442,135.269 168.646,140.8 174.985,143.411C175.482,142.416 175.731,140.365 175.731,137.258C175.731,134.896 176.477,132.969 177.968,131.477C178.839,132.596 179.771,134.461 180.765,137.071C183.624,135.207 186.297,133.901 188.783,133.156C188.161,134.647 186.918,136.077 185.054,137.444L188.41,140.241L192.139,136.325C193.506,136.947 194.439,137.941 194.936,139.309C196.179,138.19 197.702,136.791 199.504,135.113C201.306,133.435 203.451,131.54 205.937,129.426C209.417,127.811 214.452,124.827 221.04,120.477C221.661,121.968 221.972,123.149 221.972,124.019C221.972,128.37 218.305,134.026 210.971,140.987C203.886,147.699 197.857,151.553 192.885,152.547C193.133,153.541 195.184,154.225 199.038,154.598C203.761,155.095 209.293,157.954 215.632,163.175C221.848,168.271 226.074,173.181 228.311,177.905C220.356,176.165 213.177,173.803 206.776,170.82C200.374,167.836 194.563,164.356 189.342,160.378C187.975,159.384 186.67,156.835 185.427,152.733L182.63,159.446C184.743,160.813 185.8,162.429 185.8,164.294C185.8,166.283 185.427,170.26 184.681,176.227C183.935,182.193 182.878,190.273 181.511,200.466C178.652,221.225 176.787,232.412 175.917,234.028L169.951,245.216C171.567,246.21 173.058,246.707 174.426,246.707C176.166,246.707 178.155,244.843 180.392,241.114C181.138,239.87 182.443,238.192 184.308,236.079L192.325,229.367C193.693,228.994 195.122,227.564 196.614,225.078C198.23,222.468 199.722,221.101 201.089,220.976L203.14,222.468C202.891,222.841 202.549,223.245 202.114,223.68C201.679,224.115 201.151,224.581 200.53,225.078C195.309,229.056 188.037,236.825 178.714,248.385C187.415,251.99 195.122,256.154 201.835,260.878C208.671,254.538 213.333,250.063 215.819,247.453C220.915,241.984 224.831,236.887 227.566,232.164C222.345,229.18 219.983,223.897 220.48,216.315C219.113,215.196 214.7,212.524 207.242,208.297C206.62,207.303 206.31,206.308 206.31,205.314C206.31,204.817 206.62,203.636 207.242,201.771C208.858,203.636 212.276,206.184 217.497,209.416C222.718,212.524 226.385,214.202 228.498,214.45C228.622,213.829 228.715,213.238 228.778,212.679C228.84,212.12 228.871,211.529 228.871,210.908C228.871,209.043 228.374,205.936 227.379,201.585C226.882,199.472 226.509,197.638 226.26,196.084C226.012,194.531 225.95,193.257 226.074,192.262L226.26,189.838C226.26,190.087 228.684,194.002 233.532,201.585C236.267,199.099 238.069,196.488 238.939,193.754C240.431,194.748 241.177,195.929 241.177,197.296L240.99,200.653C239.374,201.398 237.759,202.144 236.143,202.89C234.527,203.636 233.781,204.941 233.905,206.806L235.024,207.738C235.148,208.359 235.335,210.97 235.583,215.569L236.516,217.434C237.51,215.693 238.007,213.953 238.007,212.213C238.007,211.094 237.696,210.038 237.075,209.043L240.618,210.348C242.358,208.608 244.626,206.495 247.423,204.009C250.22,201.523 253.421,198.664 257.026,195.432C254.788,206.246 249.692,214.512 241.736,220.23L244.72,220.79C244.72,221.66 243.725,223.276 241.736,225.638C243.849,227.129 248.822,228.87 256.653,230.858C264.857,232.972 270.264,233.904 272.874,233.655C268.526,234.601 266.262,235.186 266.084,235.413L266.162,235.427C266.535,235.489 266.659,235.52 266.535,235.52C266.178,235.52 266.027,235.484 266.084,235.413C265.721,235.352 265.249,235.263 264.67,235.147C261.066,234.401 253.172,234.028 240.99,234.028L238.007,232.909C235.521,232.909 233.035,232.474 230.549,231.604C230.549,233.096 230.052,234.836 229.057,236.825C227.193,238.068 225.142,240.368 222.904,243.724C221.537,245.713 220.418,247.329 219.548,248.572C218.678,249.815 217.932,250.685 217.311,251.182C213.83,254.911 209.666,258.64 204.818,262.369C205.067,262.867 210.909,267.279 222.345,275.608C233.781,283.936 240.742,290.276 243.228,294.626C241.115,294.005 239.685,293.756 238.939,293.881L198.106,268.709C193.631,276.043 186.67,285.055 177.223,295.745C175.731,296.739 174.239,298.076 172.748,299.754C171.256,301.432 169.702,303.328 168.086,305.441C164.108,310.91 161.374,314.391 159.882,315.882C159.136,316.38 158.266,317.001 157.272,317.747C156.277,318.493 155.159,319.425 153.916,320.544C153.667,323.154 152.175,326.51 149.441,330.612L150.746,331.731L160.442,321.662C164.295,317.809 168.086,315.136 171.815,313.645L172.748,311.407C176.477,308.3 182.008,304.073 189.342,298.728L190.088,300.034C186.98,302.893 183.655,305.814 180.113,308.797C176.57,311.78 172.685,314.764 168.459,317.747C160.628,324.459 155.469,329.369 152.983,332.477C149.627,336.828 146.457,343.167 143.474,351.495L143.474,350.377C143.474,348.636 143.225,347.207 142.728,346.088C141.361,347.207 140.118,348.636 138.999,350.377L139.745,351.309C138.75,352.925 138.253,354.354 138.253,355.597L138.253,356.343L141.982,357.835L144.593,354.665L143.661,364.174C142.542,361.564 141.485,360.259 140.491,360.259C139.994,360.259 139.558,360.507 139.186,361.005C138.813,361.502 138.44,361.75 138.067,361.75C136.948,361.75 136.202,361.253 135.829,360.259C134.959,360.88 133.84,362.31 132.473,364.547L133.033,365.48C132.038,367.22 130.36,369.147 127.998,371.26C126.631,370.638 125.761,369.582 125.388,368.09C124.269,370.203 122.156,371.26 119.048,371.26C117.93,371.26 116.749,369.209 115.506,365.107C114.263,361.502 113.765,358.891 114.014,357.275L113.455,351.309C108.607,342.732 106.059,330.861 105.81,315.696C105.561,299.661 104.256,289.157 101.894,284.185L104.132,283.253C105.126,286.484 105.996,290.214 106.742,294.44C107.488,298.666 107.985,303.576 108.234,309.17C108.98,321.725 109.912,330.426 111.031,335.274C111.155,336.268 112.087,339.065 113.828,343.664C114.946,347.02 115.506,349.817 115.506,352.055C116.003,353.422 116.935,355.1 118.303,357.089C120.291,354.976 121.534,352.241 122.032,348.885C122.405,346.15 122.529,342.918 122.405,339.189C122.032,333.098 121.845,330.053 121.845,330.053L121.845,304.881C121.845,299.039 123.399,290.897 126.507,280.456C129.738,269.641 131.354,261.499 131.354,256.03C131.354,242.854 125.947,230.921 115.133,220.23C108.296,213.642 96.487,205.376 79.706,195.432C71.005,190.335 63.795,185.892 58.077,182.1C52.359,178.309 48.071,175.108 45.212,172.498C44.217,171.503 42.664,169.763 40.55,167.277C38.437,164.791 35.703,161.559 32.346,157.581C79.582,172.125 111.279,193.257 127.439,220.976C130.049,225.451 133.343,234.774 137.321,248.945L141.796,246.148L141.796,245.216C141.796,243.848 141.734,242.201 141.609,240.274C141.485,238.348 141.299,236.141 141.05,233.655C140.802,231.169 140.584,228.994 140.398,227.129C140.211,225.265 140.118,223.711 140.118,222.468C140.118,221.473 140.211,220.479 140.398,219.485C140.584,218.49 140.802,217.371 141.05,216.128L139.372,215.942C138.999,215.693 137.787,215.01 135.736,213.891C133.685,212.772 130.795,211.343 127.066,209.602C122.094,207.241 118.551,204.382 116.438,201.026C117.059,201.026 118.054,200.87 119.421,200.559C120.789,200.249 121.845,200.093 122.591,200.093C124.331,200.093 127.936,201.709 133.405,204.941L134.524,204.382C131.292,192.449 129.676,185.115 129.676,182.38C129.676,181.51 130.111,180.36 130.982,178.93C131.852,177.501 132.349,176.413 132.473,175.668C133.095,176.413 133.872,177.377 134.804,178.558C135.736,179.738 136.762,181.199 137.88,182.939C138.502,184.431 138.937,187.476 139.186,192.076C139.31,195.432 140.491,198.602 142.728,201.585C143.474,200.466 143.847,199.472 143.847,198.602C143.847,197.483 143.35,196.551 142.355,195.805C142.977,195.556 143.723,195.276 144.593,194.966C145.463,194.655 146.519,194.251 147.763,193.754C147.763,194.251 147.669,195.09 147.483,196.271C147.296,197.452 147.203,198.353 147.203,198.974C147.203,199.099 147.887,201.088 149.254,204.941L152.983,199.347L154.102,199.907L155.407,199.347C155.656,199.596 155.78,200.59 155.78,202.331C155.78,204.071 156.588,204.879 158.204,204.755L160.069,204.009L163.052,205.128L163.052,204.568L165.103,204.568L165.103,205.873L164.171,205.873L165.476,208.111L166.222,208.297L165.289,209.975L167.154,210.908L168.273,210.535C166.408,213.021 163.984,214.264 161.001,214.264C160.457,214.264 159.675,214.169 158.656,213.978L157.752,213.804ZM142.728,369.582L141.237,369.582L141.237,367.344L142.728,367.344L142.728,369.582ZM132.846,353.733L132.66,353.733L131.914,354.479L131.914,354.852L133.592,356.53L133.778,356.53L134.711,355.784L134.711,355.224L132.846,353.733ZM128.558,344.41C128.309,345.529 127.843,346.927 127.159,348.605C126.475,350.283 125.512,352.179 124.269,354.292C125.264,355.287 126.507,355.908 127.998,356.157C128.247,355.162 128.464,354.075 128.651,352.894C128.837,351.713 128.868,350.439 128.744,349.071L128.558,344.41ZM157.272,312.153C156.277,313.148 155.065,314.391 153.636,315.882C152.206,317.374 150.497,319.114 148.508,321.103C148.508,321.725 147.327,323.776 144.966,327.256C141.858,332.104 139.869,338.879 138.999,347.58L141.796,345.715C143.163,341.738 145.152,336.983 147.763,331.451C150.373,325.92 153.543,319.487 157.272,312.153ZM135.829,342.173L133.965,340.308L132.287,341.8C132.535,343.167 133.281,343.851 134.524,343.851L135.829,342.173ZM134.524,285.304C134.524,279.088 134.151,273.184 133.405,267.59C127.315,283.625 124.269,301.09 124.269,319.984C124.269,321.352 124.3,322.999 124.362,324.925C124.424,326.852 124.456,328.996 124.456,331.358C124.58,334.093 124.611,336.424 124.549,338.35C124.487,340.277 124.518,341.8 124.642,342.918C126.258,340.059 127.252,337.076 127.625,333.969C132.225,329.494 134.524,317.747 134.524,298.728L134.524,285.304ZM155.594,282.134C153.978,284.868 152.113,288.287 150,292.389C147.887,296.491 145.525,301.401 142.915,307.119C142.293,309.729 141.392,312.93 140.211,316.721C139.03,320.513 137.57,325.019 135.829,330.239L148.135,307.305C150.249,303.452 151.865,299.381 152.983,295.092C154.102,290.804 154.972,286.484 155.594,282.134ZM196.055,267.59C185.489,260.008 177.16,256.216 171.07,256.216C168.211,260.567 165.88,264.296 164.077,267.404C162.275,270.511 161.063,273.122 160.442,275.235L155.221,295.372C158.701,293.756 162.928,289.592 167.9,282.88L167.9,283.812L157.458,299.661C153.356,306 150.746,311.718 149.627,316.815L174.426,292.202L175.358,292.202C179.833,286.609 186.732,278.405 196.055,267.59ZM148.508,250.623L146.644,250.623C146.395,252.737 145.805,255.533 144.872,259.013C143.94,262.494 143.536,267.217 143.661,273.184C143.661,277.286 143.661,280.549 143.661,282.973C143.661,285.397 143.598,286.982 143.474,287.727C143.225,286.484 142.915,284.993 142.542,283.253C142.169,281.512 141.672,279.461 141.05,277.099C141.174,277.97 141.268,278.871 141.33,279.803C141.392,280.735 141.423,281.699 141.423,282.693C141.423,285.179 141.237,288.908 140.864,293.881C140.491,298.977 140.304,302.706 140.304,305.068C140.553,304.571 141.796,302.209 144.033,297.983C146.271,293.756 149.565,287.541 153.916,279.337C160.379,267.528 163.611,259.075 163.611,253.979C159.882,252.736 156.775,251.866 154.288,251.369C151.803,250.871 149.876,250.623 148.508,250.623ZM142.542,268.336C142.542,266.969 142.355,264.296 141.982,260.318C141.858,258.578 141.765,257.024 141.703,255.657C141.641,254.29 141.672,253.109 141.796,252.114C138.564,254.228 136.948,256.9 136.948,260.132C136.948,259.51 138.626,263.923 141.982,273.37C142.355,272.127 142.542,270.449 142.542,268.336ZM166.781,255.098C165.911,255.844 165.476,257.024 165.476,258.64L165.476,259.2C165.724,258.703 166.128,258.174 166.688,257.615C167.247,257.055 167.838,256.403 168.459,255.657L166.781,255.098ZM240.431,224.892C240.431,222.157 239.623,220.79 238.007,220.79C237.261,220.79 236.267,221.909 235.024,224.146C233.657,226.383 232.724,227.689 232.227,228.062C234.216,228.435 235.832,228.621 237.075,228.621C239.312,228.621 240.431,227.378 240.431,224.892ZM225.142,207.179C225.266,208.794 224.52,209.602 222.904,209.602C221.288,209.602 220.48,208.857 220.48,207.365C220.48,206.495 221.288,206.06 222.904,206.06C223.65,206.06 224.396,206.433 225.142,207.179ZM184.681,145.275L184.681,144.529C184.681,141.795 184.121,140.427 183.003,140.427L181.884,140.987L184.681,145.275ZM193.631,141.36C193.382,141.235 193.04,141.049 192.605,140.8C192.17,140.552 191.704,140.303 191.207,140.054L189.715,140.8L189.715,141.36L189.902,143.224C191.145,143.224 192.388,142.603 193.631,141.36ZM169.951,136.139L166.967,136.139L166.967,133.156L170.697,134.088L169.951,136.139Z" style="fill:rgb(0,73,0);"/>
        <clipPath id="_clip1">
            <path d="M157.752,213.804C156.733,213.613 155.951,213.518 155.407,213.518C154.91,213.518 154.226,213.705 153.356,214.077C152.486,214.45 151.554,214.823 150.559,215.196C149.565,215.569 148.539,215.911 147.483,216.222C146.426,216.532 145.525,216.688 144.779,216.688C144.779,219.671 144.872,223.431 145.059,227.968C145.245,232.505 145.587,237.819 146.084,243.91C149.068,242.543 151.119,241.859 152.237,241.859C152.983,241.859 153.947,241.984 155.128,242.232C156.308,242.481 157.52,242.761 158.763,243.071C160.006,243.382 161.218,243.662 162.399,243.91C163.58,244.159 164.544,244.283 165.289,244.283C170.262,244.283 174.364,232.35 177.595,208.484C179.833,190.957 180.952,176.351 180.952,164.667C180.952,162.305 176.663,157.643 168.086,150.682C158.639,142.976 152.735,135.02 150.373,126.816C160.442,135.269 168.646,140.8 174.985,143.411C175.482,142.416 175.731,140.365 175.731,137.258C175.731,134.896 176.477,132.969 177.968,131.477C178.839,132.596 179.771,134.461 180.765,137.071C183.624,135.207 186.297,133.901 188.783,133.156C188.161,134.647 186.918,136.077 185.054,137.444L188.41,140.241L192.139,136.325C193.506,136.947 194.439,137.941 194.936,139.309C196.179,138.19 197.702,136.791 199.504,135.113C201.306,133.435 203.451,131.54 205.937,129.426C209.417,127.811 214.452,124.827 221.04,120.477C221.661,121.968 221.972,123.149 221.972,124.019C221.972,128.37 218.305,134.026 210.971,140.987C203.886,147.699 197.857,151.553 192.885,152.547C193.133,153.541 195.184,154.225 199.038,154.598C203.761,155.095 209.293,157.954 215.632,163.175C221.848,168.271 226.074,173.181 228.311,177.905C220.356,176.165 213.177,173.803 206.776,170.82C200.374,167.836 194.563,164.356 189.342,160.378C187.975,159.384 186.67,156.835 185.427,152.733L182.63,159.446C184.743,160.813 185.8,162.429 185.8,164.294C185.8,166.283 185.427,170.26 184.681,176.227C183.935,182.193 182.878,190.273 181.511,200.466C178.652,221.225 176.787,232.412 175.917,234.028L169.951,245.216C171.567,246.21 173.058,246.707 174.426,246.707C176.166,246.707 178.155,244.843 180.392,241.114C181.138,239.87 182.443,238.192 184.308,236.079L192.325,229.367C193.693,228.994 195.122,227.564 196.614,225.078C198.23,222.468 199.722,221.101 201.089,220.976L203.14,222.468C202.891,222.841 202.549,223.245 202.114,223.68C201.679,224.115 201.151,224.581 200.53,225.078C195.309,229.056 188.037,236.825 178.714,248.385C187.415,251.99 195.122,256.154 201.835,260.878C208.671,254.538 213.333,250.063 215.819,247.453C220.915,241.984 224.831,236.887 227.566,232.164C222.345,229.18 219.983,223.897 220.48,216.315C219.113,215.196 214.7,212.524 207.242,208.297C206.62,207.303 206.31,206.308 206.31,205.314C206.31,204.817 206.62,203.636 207.242,201.771C208.858,203.636 212.276,206.184 217.497,209.416C222.718,212.524 226.385,214.202 228.498,214.45C228.622,213.829 228.715,213.238 228.778,212.679C228.84,212.12 228.871,211.529 228.871,210.908C228.871,209.043 228.374,205.936 227.379,201.585C226.882,199.472 226.509,197.638 226.26,196.084C226.012,194.531 225.95,193.257 226.074,192.262L226.26,189.838C226.26,190.087 228.684,194.002 233.532,201.585C236.267,199.099 238.069,196.488 238.939,193.754C240.431,194.748 241.177,195.929 241.177,197.296L240.99,200.653C239.374,201.398 237.759,202.144 236.143,202.89C234.527,203.636 233.781,204.941 233.905,206.806L235.024,207.738C235.148,208.359 235.335,210.97 235.583,215.569L236.516,217.434C237.51,215.693 238.007,213.953 238.007,212.213C238.007,211.094 237.696,210.038 237.075,209.043L240.618,210.348C242.358,208.608 244.626,206.495 247.423,204.009C250.22,201.523 253.421,198.664 257.026,195.432C254.788,206.246 249.692,214.512 241.736,220.23L244.72,220.79C244.72,221.66 243.725,223.276 241.736,225.638C243.849,227.129 248.822,228.87 256.653,230.858C264.857,232.972 270.264,233.904 272.874,233.655C268.526,234.601 266.262,235.186 266.084,235.413L266.162,235.427C266.535,235.489 266.659,235.52 266.535,235.52C266.178,235.52 266.027,235.484 266.084,235.413C265.721,235.352 265.249,235.263 264.67,235.147C261.066,234.401 253.172,234.028 240.99,234.028L238.007,232.909C235.521,232.909 233.035,232.474 230.549,231.604C230.549,233.096 230.052,234.836 229.057,236.825C227.193,238.068 225.142,240.368 222.904,243.724C221.537,245.713 220.418,247.329 219.548,248.572C218.678,249.815 217.932,250.685 217.311,251.182C213.83,254.911 209.666,258.64 204.818,262.369C205.067,262.867 210.909,267.279 222.345,275.608C233.781,283.936 240.742,290.276 243.228,294.626C241.115,294.005 239.685,293.756 238.939,293.881L198.106,268.709C193.631,276.043 186.67,285.055 177.223,295.745C175.731,296.739 174.239,298.076 172.748,299.754C171.256,301.432 169.702,303.328 168.086,305.441C164.108,310.91 161.374,314.391 159.882,315.882C159.136,316.38 158.266,317.001 157.272,317.747C156.277,318.493 155.159,319.425 153.916,320.544C153.667,323.154 152.175,326.51 149.441,330.612L150.746,331.731L160.442,321.662C164.295,317.809 168.086,315.136 171.815,313.645L172.748,311.407C176.477,308.3 182.008,304.073 189.342,298.728L190.088,300.034C186.98,302.893 183.655,305.814 180.113,308.797C176.57,311.78 172.685,314.764 168.459,317.747C160.628,324.459 155.469,329.369 152.983,332.477C149.627,336.828 146.457,343.167 143.474,351.495L143.474,350.377C143.474,348.636 143.225,347.207 142.728,346.088C141.361,347.207 140.118,348.636 138.999,350.377L139.745,351.309C138.75,352.925 138.253,354.354 138.253,355.597L138.253,356.343L141.982,357.835L144.593,354.665L143.661,364.174C142.542,361.564 141.485,360.259 140.491,360.259C139.994,360.259 139.558,360.507 139.186,361.005C138.813,361.502 138.44,361.75 138.067,361.75C136.948,361.75 136.202,361.253 135.829,360.259C134.959,360.88 133.84,362.31 132.473,364.547L133.033,365.48C132.038,367.22 130.36,369.147 127.998,371.26C126.631,370.638 125.761,369.582 125.388,368.09C124.269,370.203 122.156,371.26 119.048,371.26C117.93,371.26 116.749,369.209 115.506,365.107C114.263,361.502 113.765,358.891 114.014,357.275L113.455,351.309C108.607,342.732 106.059,330.861 105.81,315.696C105.561,299.661 104.256,289.157 101.894,284.185L104.132,283.253C105.126,286.484 105.996,290.214 106.742,294.44C107.488,298.666 107.985,303.576 108.234,309.17C108.98,321.725 109.912,330.426 111.031,335.274C111.155,336.268 112.087,339.065 113.828,343.664C114.946,347.02 115.506,349.817 115.506,352.055C116.003,353.422 116.935,355.1 118.303,357.089C120.291,354.976 121.534,352.241 122.032,348.885C122.405,346.15 122.529,342.918 122.405,339.189C122.032,333.098 121.845,330.053 121.845,330.053L121.845,304.881C121.845,299.039 123.399,290.897 126.507,280.456C129.738,269.641 131.354,261.499 131.354,256.03C131.354,242.854 125.947,230.921 115.133,220.23C108.296,213.642 96.487,205.376 79.706,195.432C71.005,190.335 63.795,185.892 58.077,182.1C52.359,178.309 48.071,175.108 45.212,172.498C44.217,171.503 42.664,169.763 40.55,167.277C38.437,164.791 35.703,161.559 32.346,157.581C79.582,172.125 111.279,193.257 127.439,220.976C130.049,225.451 133.343,234.774 137.321,248.945L141.796,246.148L141.796,245.216C141.796,243.848 141.734,242.201 141.609,240.274C141.485,238.348 141.299,236.141 141.05,233.655C140.802,231.169 140.584,228.994 140.398,227.129C140.211,225.265 140.118,223.711 140.118,222.468C140.118,221.473 140.211,220.479 140.398,219.485C140.584,218.49 140.802,217.371 141.05,216.128L139.372,215.942C138.999,215.693 137.787,215.01 135.736,213.891C133.685,212.772 130.795,211.343 127.066,209.602C122.094,207.241 118.551,204.382 116.438,201.026C117.059,201.026 118.054,200.87 119.421,200.559C120.789,200.249 121.845,200.093 122.591,200.093C124.331,200.093 127.936,201.709 133.405,204.941L134.524,204.382C131.292,192.449 129.676,185.115 129.676,182.38C129.676,181.51 130.111,180.36 130.982,178.93C131.852,177.501 132.349,176.413 132.473,175.668C133.095,176.413 133.872,177.377 134.804,178.558C135.736,179.738 136.762,181.199 137.88,182.939C138.502,184.431 138.937,187.476 139.186,192.076C139.31,195.432 140.491,198.602 142.728,201.585C143.474,200.466 143.847,199.472 143.847,198.602C143.847,197.483 143.35,196.551 142.355,195.805C142.977,195.556 143.723,195.276 144.593,194.966C145.463,194.655 146.519,194.251 147.763,193.754C147.763,194.251 147.669,195.09 147.483,196.271C147.296,197.452 147.203,198.353 147.203,198.974C147.203,199.099 147.887,201.088 149.254,204.941L152.983,199.347L154.102,199.907L155.407,199.347C155.656,199.596 155.78,200.59 155.78,202.331C155.78,204.071 156.588,204.879 158.204,204.755L160.069,204.009L163.052,205.128L163.052,204.568L165.103,204.568L165.103,205.873L164.171,205.873L165.476,208.111L166.222,208.297L165.289,209.975L167.154,210.908L168.273,210.535C166.408,213.021 163.984,214.264 161.001,214.264C160.457,214.264 159.675,214.169 158.656,213.978L157.752,213.804ZM142.728,369.582L141.237,369.582L141.237,367.344L142.728,367.344L142.728,369.582ZM132.846,353.733L132.66,353.733L131.914,354.479L131.914,354.852L133.592,356.53L133.778,356.53L134.711,355.784L134.711,355.224L132.846,353.733ZM128.558,344.41C128.309,345.529 127.843,346.927 127.159,348.605C126.475,350.283 125.512,352.179 124.269,354.292C125.264,355.287 126.507,355.908 127.998,356.157C128.247,355.162 128.464,354.075 128.651,352.894C128.837,351.713 128.868,350.439 128.744,349.071L128.558,344.41ZM157.272,312.153C156.277,313.148 155.065,314.391 153.636,315.882C152.206,317.374 150.497,319.114 148.508,321.103C148.508,321.725 147.327,323.776 144.966,327.256C141.858,332.104 139.869,338.879 138.999,347.58L141.796,345.715C143.163,341.738 145.152,336.983 147.763,331.451C150.373,325.92 153.543,319.487 157.272,312.153ZM135.829,342.173L133.965,340.308L132.287,341.8C132.535,343.167 133.281,343.851 134.524,343.851L135.829,342.173ZM134.524,285.304C134.524,279.088 134.151,273.184 133.405,267.59C127.315,283.625 124.269,301.09 124.269,319.984C124.269,321.352 124.3,322.999 124.362,324.925C124.424,326.852 124.456,328.996 124.456,331.358C124.58,334.093 124.611,336.424 124.549,338.35C124.487,340.277 124.518,341.8 124.642,342.918C126.258,340.059 127.252,337.076 127.625,333.969C132.225,329.494 134.524,317.747 134.524,298.728L134.524,285.304ZM155.594,282.134C153.978,284.868 152.113,288.287 150,292.389C147.887,296.491 145.525,301.401 142.915,307.119C142.293,309.729 141.392,312.93 140.211,316.721C139.03,320.513 137.57,325.019 135.829,330.239L148.135,307.305C150.249,303.452 151.865,299.381 152.983,295.092C154.102,290.804 154.972,286.484 155.594,282.134ZM196.055,267.59C185.489,260.008 177.16,256.216 171.07,256.216C168.211,260.567 165.88,264.296 164.077,267.404C162.275,270.511 161.063,273.122 160.442,275.235L155.221,295.372C158.701,293.756 162.928,289.592 167.9,282.88L167.9,283.812L157.458,299.661C153.356,306 150.746,311.718 149.627,316.815L174.426,292.202L175.358,292.202C179.833,286.609 186.732,278.405 196.055,267.59ZM148.508,250.623L146.644,250.623C146.395,252.737 145.805,255.533 144.872,259.013C143.94,262.494 143.536,267.217 143.661,273.184C143.661,277.286 143.661,280.549 143.661,282.973C143.661,285.397 143.598,286.982 143.474,287.727C143.225,286.484 142.915,284.993 142.542,283.253C142.169,281.512 141.672,279.461 141.05,277.099C141.174,277.97 141.268,278.871 141.33,279.803C141.392,280.735 141.423,281.699 141.423,282.693C141.423,285.179 141.237,288.908 140.864,293.881C140.491,298.977 140.304,302.706 140.304,305.068C140.553,304.571 141.796,302.209 144.033,297.983C146.271,293.756 149.565,287.541 153.916,279.337C160.379,267.528 163.611,259.075 163.611,253.979C159.882,252.736 156.775,251.866 154.288,251.369C151.803,250.871 149.876,250.623 148.508,250.623ZM142.542,268.336C142.542,266.969 142.355,264.296 141.982,260.318C141.858,258.578 141.765,257.024 141.703,255.657C141.641,254.29 141.672,253.109 141.796,252.114C138.564,254.228 136.948,256.9 136.948,260.132C136.948,259.51 138.626,263.923 141.982,273.37C142.355,272.127 142.542,270.449 142.542,268.336ZM166.781,255.098C165.911,255.844 165.476,257.024 165.476,258.64L165.476,259.2C165.724,258.703 166.128,258.174 166.688,257.615C167.247,257.055 167.838,256.403 168.459,255.657L166.781,255.098ZM240.431,224.892C240.431,222.157 239.623,220.79 238.007,220.79C237.261,220.79 236.267,221.909 235.024,224.146C233.657,226.383 232.724,227.689 232.227,228.062C234.216,228.435 235.832,228.621 237.075,228.621C239.312,228.621 240.431,227.378 240.431,224.892ZM225.142,207.179C225.266,208.794 224.52,209.602 222.904,209.602C221.288,209.602 220.48,208.857 220.48,207.365C220.48,206.495 221.288,206.06 222.904,206.06C223.65,206.06 224.396,206.433 225.142,207.179ZM184.681,145.275L184.681,144.529C184.681,141.795 184.121,140.427 183.003,140.427L181.884,140.987L184.681,145.275ZM193.631,141.36C193.382,141.235 193.04,141.049 192.605,140.8C192.17,140.552 191.704,140.303 191.207,140.054L189.715,140.8L189.715,141.36L189.902,143.224C191.145,143.224 192.388,142.603 193.631,141.36ZM169.951,136.139L166.967,136.139L166.967,133.156L170.697,134.088L169.951,136.139Z"/>
        </clipPath>
        <g clip-path="url(#_clip1)">
            <g id="Layer1">
                <path d="M186.403,124.016C189.634,124.566 203.19,124.867 207.225,121.479C207.603,121.163 207.982,120.848 208.362,120.534C209.61,119.508 218.718,111.848 221.948,112.053C227.484,112.404 231.471,117.193 229.754,122.833C226.949,132.048 218.388,137.745 210.572,142.232C210.186,142.455 209.8,142.679 209.415,142.906C206.766,144.476 201.807,146.85 202.751,150.675C202.751,150.675 202.973,150.806 203.087,150.867C203.601,151.136 204.123,151.389 204.638,151.657C208.659,153.773 211.932,157.21 215.057,160.389C215.057,160.389 222.216,164.101 222.435,164.105C222.615,164.11 234.616,175.492 234.616,175.492C234.616,175.492 227.173,183.126 224.026,180.999C222.627,180.556 221.223,180.128 219.823,179.689C216.063,178.501 184.599,160.001 184.245,159.993C179.62,159.864 160.648,158.917 158.893,151.081C158.826,150.787 144.246,118.432 144.422,118.165L144.431,118.153C148.183,113.003 182.428,123.972 185.306,123.955L185.488,123.955C185.488,123.955 186.099,123.985 186.403,124.016" style="fill:rgb(44,99,255);fill-rule:nonzero;"/>
                <path d="M254.852,190.856C260.124,191.524 261.717,196.87 260.701,201.438C258.782,210.073 246.459,219.108 246.092,219.24C246.092,219.24 247.944,221.695 249.846,223.035C253.662,225.724 272.97,225.987 276.626,228.864C281.623,232.795 277.441,240.296 272.004,240.462L231.657,232.886C228.892,232.871 227.832,232.665 226.747,232.179C225.344,231.55 206.884,217.33 204.341,215.278C198.922,210.905 203.347,198.016 208.484,198.236C208.584,198.239 208.684,198.241 208.784,198.241C209.355,198.242 209.925,198.217 210.495,198.206C210.726,198.202 210.957,198.2 211.187,198.2C219.387,198.264 221.494,194.567 224.193,188.915C228.702,179.47 241.494,188.266 242.74,196.317C243.336,200.162 242.901,200.673 242.7,204.524C242.675,205.024 247.482,201.396 247.493,197.527L247.507,197.113C247.852,193.496 250.808,190.819 254.439,190.83C254.577,190.839 254.714,190.848 254.852,190.856" style="fill:rgb(44,99,255);fill-rule:nonzero;"/>
                <path d="M165.365,198.222C171.468,198.992 172.03,205.403 170.831,210.171C168.793,218.274 155.95,222.744 150.177,215.832C150.061,215.869 149.944,215.902 149.826,215.935C145.739,217.061 141.273,215.893 137.064,216.014C134.579,216.086 131.758,217.57 129.515,216.311C127.006,214.903 115.33,202.301 115.33,202.301C112.271,197.821 117.568,192.798 122.97,192.666C122.97,192.666 124.378,172.309 126.941,168.789C129.713,164.981 141.538,172.947 141.723,174.034C142.547,178.864 141.291,188.439 141.238,188.909C141.238,188.909 163.136,198.145 165.036,198.197C165.145,198.205 165.255,198.214 165.365,198.222" style="fill:rgb(44,99,255);fill-rule:nonzero;"/>
            </g>
        </g>
        <path d="M157.752,213.804C156.733,213.613 155.951,213.518 155.407,213.518C154.91,213.518 154.226,213.705 153.356,214.077C152.486,214.45 151.554,214.823 150.559,215.196C149.565,215.569 148.539,215.911 147.483,216.222C146.426,216.532 145.525,216.688 144.779,216.688C144.779,219.671 144.872,223.431 145.059,227.968C145.245,232.505 145.587,237.819 146.084,243.91C149.068,242.543 151.119,241.859 152.237,241.859C152.983,241.859 153.947,241.984 155.128,242.232C156.308,242.481 157.52,242.761 158.763,243.071C160.006,243.382 161.218,243.662 162.399,243.91C163.58,244.159 164.544,244.283 165.289,244.283C170.262,244.283 174.364,232.35 177.595,208.484C179.833,190.957 180.952,176.351 180.952,164.667C180.952,162.305 176.663,157.643 168.086,150.682C158.639,142.976 152.735,135.02 150.373,126.816C160.442,135.269 168.646,140.8 174.985,143.411C175.482,142.416 175.731,140.365 175.731,137.258C175.731,134.896 176.477,132.969 177.968,131.477C178.839,132.596 179.771,134.461 180.765,137.071C183.624,135.207 186.297,133.901 188.783,133.156C188.161,134.647 186.918,136.077 185.054,137.444L188.41,140.241L192.139,136.325C193.506,136.947 194.439,137.941 194.936,139.309C196.179,138.19 197.702,136.791 199.504,135.113C201.306,133.435 203.451,131.54 205.937,129.426C209.417,127.811 214.452,124.827 221.04,120.477C221.661,121.968 221.972,123.149 221.972,124.019C221.972,128.37 218.305,134.026 210.971,140.987C203.886,147.699 197.857,151.553 192.885,152.547C193.133,153.541 195.184,154.225 199.038,154.598C203.761,155.095 209.293,157.954 215.632,163.175C221.848,168.271 226.074,173.181 228.311,177.905C220.356,176.165 213.177,173.803 206.776,170.82C200.374,167.836 194.563,164.356 189.342,160.378C187.975,159.384 186.67,156.835 185.427,152.733L182.63,159.446C184.743,160.813 185.8,162.429 185.8,164.294C185.8,166.283 185.427,170.26 184.681,176.227C183.935,182.193 182.878,190.273 181.511,200.466C178.652,221.225 176.787,232.412 175.917,234.028L169.951,245.216C171.567,246.21 173.058,246.707 174.426,246.707C176.166,246.707 178.155,244.843 180.392,241.114C181.138,239.87 182.443,238.192 184.308,236.079L192.325,229.367C193.693,228.994 195.122,227.564 196.614,225.078C198.23,222.468 199.722,221.101 201.089,220.976L203.14,222.468C202.891,222.841 202.549,223.245 202.114,223.68C201.679,224.115 201.151,224.581 200.53,225.078C195.309,229.056 188.037,236.825 178.714,248.385C187.415,251.99 195.122,256.154 201.835,260.878C208.671,254.538 213.333,250.063 215.819,247.453C220.915,241.984 224.831,236.887 227.566,232.164C222.345,229.18 219.983,223.897 220.48,216.315C219.113,215.196 214.7,212.524 207.242,208.297C206.62,207.303 206.31,206.308 206.31,205.314C206.31,204.817 206.62,203.636 207.242,201.771C208.858,203.636 212.276,206.184 217.497,209.416C222.718,212.524 226.385,214.202 228.498,214.45C228.622,213.829 228.715,213.238 228.778,212.679C228.84,212.12 228.871,211.529 228.871,210.908C228.871,209.043 228.374,205.936 227.379,201.585C226.882,199.472 226.509,197.638 226.26,196.084C226.012,194.531 225.95,193.257 226.074,192.262L226.26,189.838C226.26,190.087 228.684,194.002 233.532,201.585C236.267,199.099 238.069,196.488 238.939,193.754C240.431,194.748 241.177,195.929 241.177,197.296L240.99,200.653C239.374,201.398 237.759,202.144 236.143,202.89C234.527,203.636 233.781,204.941 233.905,206.806L235.024,207.738C235.148,208.359 235.335,210.97 235.583,215.569L236.516,217.434C237.51,215.693 238.007,213.953 238.007,212.213C238.007,211.094 237.696,210.038 237.075,209.043L240.618,210.348C242.358,208.608 244.626,206.495 247.423,204.009C250.22,201.523 253.421,198.664 257.026,195.432C254.788,206.246 249.692,214.512 241.736,220.23L244.72,220.79C244.72,221.66 243.725,223.276 241.736,225.638C243.849,227.129 248.822,228.87 256.653,230.858C264.857,232.972 270.264,233.904 272.874,233.655C268.526,234.601 266.262,235.186 266.084,235.413L266.162,235.427C266.535,235.489 266.659,235.52 266.535,235.52C266.178,235.52 266.027,235.484 266.084,235.413C265.721,235.352 265.249,235.263 264.67,235.147C261.066,234.401 253.172,234.028 240.99,234.028L238.007,232.909C235.521,232.909 233.035,232.474 230.549,231.604C230.549,233.096 230.052,234.836 229.057,236.825C227.193,238.068 225.142,240.368 222.904,243.724C221.537,245.713 220.418,247.329 219.548,248.572C218.678,249.815 217.932,250.685 217.311,251.182C213.83,254.911 209.666,258.64 204.818,262.369C205.067,262.867 210.909,267.279 222.345,275.608C233.781,283.936 240.742,290.276 243.228,294.626C241.115,294.005 239.685,293.756 238.939,293.881L198.106,268.709C193.631,276.043 186.67,285.055 177.223,295.745C175.731,296.739 174.239,298.076 172.748,299.754C171.256,301.432 169.702,303.328 168.086,305.441C164.108,310.91 161.374,314.391 159.882,315.882C159.136,316.38 158.266,317.001 157.272,317.747C156.277,318.493 155.159,319.425 153.916,320.544C153.667,323.154 152.175,326.51 149.441,330.612L150.746,331.731L160.442,321.662C164.295,317.809 168.086,315.136 171.815,313.645L172.748,311.407C176.477,308.3 182.008,304.073 189.342,298.728L190.088,300.034C186.98,302.893 183.655,305.814 180.113,308.797C176.57,311.78 172.685,314.764 168.459,317.747C160.628,324.459 155.469,329.369 152.983,332.477C149.627,336.828 146.457,343.167 143.474,351.495L143.474,350.377C143.474,348.636 143.225,347.207 142.728,346.088C141.361,347.207 140.118,348.636 138.999,350.377L139.745,351.309C138.75,352.925 138.253,354.354 138.253,355.597L138.253,356.343L141.982,357.835L144.593,354.665L143.661,364.174C142.542,361.564 141.485,360.259 140.491,360.259C139.994,360.259 139.558,360.507 139.186,361.005C138.813,361.502 138.44,361.75 138.067,361.75C136.948,361.75 136.202,361.253 135.829,360.259C134.959,360.88 133.84,362.31 132.473,364.547L133.033,365.48C132.038,367.22 130.36,369.147 127.998,371.26C126.631,370.638 125.761,369.582 125.388,368.09C124.269,370.203 122.156,371.26 119.048,371.26C117.93,371.26 116.749,369.209 115.506,365.107C114.263,361.502 113.765,358.891 114.014,357.275L113.455,351.309C108.607,342.732 106.059,330.861 105.81,315.696C105.561,299.661 104.256,289.157 101.894,284.185L104.132,283.253C105.126,286.484 105.996,290.214 106.742,294.44C107.488,298.666 107.985,303.576 108.234,309.17C108.98,321.725 109.912,330.426 111.031,335.274C111.155,336.268 112.087,339.065 113.828,343.664C114.946,347.02 115.506,349.817 115.506,352.055C116.003,353.422 116.935,355.1 118.303,357.089C120.291,354.976 121.534,352.241 122.032,348.885C122.405,346.15 122.529,342.918 122.405,339.189C122.032,333.098 121.845,330.053 121.845,330.053L121.845,304.881C121.845,299.039 123.399,290.897 126.507,280.456C129.738,269.641 131.354,261.499 131.354,256.03C131.354,242.854 125.947,230.921 115.133,220.23C108.296,213.642 96.487,205.376 79.706,195.432C71.005,190.335 63.795,185.892 58.077,182.1C52.359,178.309 48.071,175.108 45.212,172.498C44.217,171.503 42.664,169.763 40.55,167.277C38.437,164.791 35.703,161.559 32.346,157.581C79.582,172.125 111.279,193.257 127.439,220.976C130.049,225.451 133.343,234.774 137.321,248.945L141.796,246.148L141.796,245.216C141.796,243.848 141.734,242.201 141.609,240.274C141.485,238.348 141.299,236.141 141.05,233.655C140.802,231.169 140.584,228.994 140.398,227.129C140.211,225.265 140.118,223.711 140.118,222.468C140.118,221.473 140.211,220.479 140.398,219.485C140.584,218.49 140.802,217.371 141.05,216.128L139.372,215.942C138.999,215.693 137.787,215.01 135.736,213.891C133.685,212.772 130.795,211.343 127.066,209.602C122.094,207.241 118.551,204.382 116.438,201.026C117.059,201.026 118.054,200.87 119.421,200.559C120.789,200.249 121.845,200.093 122.591,200.093C124.331,200.093 127.936,201.709 133.405,204.941L134.524,204.382C131.292,192.449 129.676,185.115 129.676,182.38C129.676,181.51 130.111,180.36 130.982,178.93C131.852,177.501 132.349,176.413 132.473,175.668C133.095,176.413 133.872,177.377 134.804,178.558C135.736,179.738 136.762,181.199 137.88,182.939C138.502,184.431 138.937,187.476 139.186,192.076C139.31,195.432 140.491,198.602 142.728,201.585C143.474,200.466 143.847,199.472 143.847,198.602C143.847,197.483 143.35,196.551 142.355,195.805C142.977,195.556 143.723,195.276 144.593,194.966C145.463,194.655 146.519,194.251 147.763,193.754C147.763,194.251 147.669,195.09 147.483,196.271C147.296,197.452 147.203,198.353 147.203,198.974C147.203,199.099 147.887,201.088 149.254,204.941L152.983,199.347L154.102,199.907L155.407,199.347C155.656,199.596 155.78,200.59 155.78,202.331C155.78,204.071 156.588,204.879 158.204,204.755L160.069,204.009L163.052,205.128L163.052,204.568L165.103,204.568L165.103,205.873L164.171,205.873L165.476,208.111L166.222,208.297L165.289,209.975L167.154,210.908L168.273,210.535C166.408,213.021 163.984,214.264 161.001,214.264C160.457,214.264 159.675,214.169 158.656,213.978L157.752,213.804ZM142.728,369.582L141.237,369.582L141.237,367.344L142.728,367.344L142.728,369.582ZM132.846,353.733L132.66,353.733L131.914,354.479L131.914,354.852L133.592,356.53L133.778,356.53L134.711,355.784L134.711,355.224L132.846,353.733ZM128.558,344.41C128.309,345.529 127.843,346.927 127.159,348.605C126.475,350.283 125.512,352.179 124.269,354.292C125.264,355.287 126.507,355.908 127.998,356.157C128.247,355.162 128.464,354.075 128.651,352.894C128.837,351.713 128.868,350.439 128.744,349.071L128.558,344.41ZM157.272,312.153C156.277,313.148 155.065,314.391 153.636,315.882C152.206,317.374 150.497,319.114 148.508,321.103C148.508,321.725 147.327,323.776 144.966,327.256C141.858,332.104 139.869,338.879 138.999,347.58L141.796,345.715C143.163,341.738 145.152,336.983 147.763,331.451C150.373,325.92 153.543,319.487 157.272,312.153ZM135.829,342.173L133.965,340.308L132.287,341.8C132.535,343.167 133.281,343.851 134.524,343.851L135.829,342.173ZM134.524,285.304C134.524,279.088 134.151,273.184 133.405,267.59C127.315,283.625 124.269,301.09 124.269,319.984C124.269,321.352 124.3,322.999 124.362,324.925C124.424,326.852 124.456,328.996 124.456,331.358C124.58,334.093 124.611,336.424 124.549,338.35C124.487,340.277 124.518,341.8 124.642,342.918C126.258,340.059 127.252,337.076 127.625,333.969C132.225,329.494 134.524,317.747 134.524,298.728L134.524,285.304ZM155.594,282.134C153.978,284.868 152.113,288.287 150,292.389C147.887,296.491 145.525,301.401 142.915,307.119C142.293,309.729 141.392,312.93 140.211,316.721C139.03,320.513 137.57,325.019 135.829,330.239L148.135,307.305C150.249,303.452 151.865,299.381 152.983,295.092C154.102,290.804 154.972,286.484 155.594,282.134ZM196.055,267.59C185.489,260.008 177.16,256.216 171.07,256.216C168.211,260.567 165.88,264.296 164.077,267.404C162.275,270.511 161.063,273.122 160.442,275.235L155.221,295.372C158.701,293.756 162.928,289.592 167.9,282.88L167.9,283.812L157.458,299.661C153.356,306 150.746,311.718 149.627,316.815L174.426,292.202L175.358,292.202C179.833,286.609 186.732,278.405 196.055,267.59ZM148.508,250.623L146.644,250.623C146.395,252.737 145.805,255.533 144.872,259.013C143.94,262.494 143.536,267.217 143.661,273.184C143.661,277.286 143.661,280.549 143.661,282.973C143.661,285.397 143.598,286.982 143.474,287.727C143.225,286.484 142.915,284.993 142.542,283.253C142.169,281.512 141.672,279.461 141.05,277.099C141.174,277.97 141.268,278.871 141.33,279.803C141.392,280.735 141.423,281.699 141.423,282.693C141.423,285.179 141.237,288.908 140.864,293.881C140.491,298.977 140.304,302.706 140.304,305.068C140.553,304.571 141.796,302.209 144.033,297.983C146.271,293.756 149.565,287.541 153.916,279.337C160.379,267.528 163.611,259.075 163.611,253.979C159.882,252.736 156.775,251.866 154.288,251.369C151.803,250.871 149.876,250.623 148.508,250.623ZM142.542,268.336C142.542,266.969 142.355,264.296 141.982,260.318C141.858,258.578 141.765,257.024 141.703,255.657C141.641,254.29 141.672,253.109 141.796,252.114C138.564,254.228 136.948,256.9 136.948,260.132C136.948,259.51 138.626,263.923 141.982,273.37C142.355,272.127 142.542,270.449 142.542,268.336ZM166.781,255.098C165.911,255.844 165.476,257.024 165.476,258.64L165.476,259.2C165.724,258.703 166.128,258.174 166.688,257.615C167.247,257.055 167.838,256.403 168.459,255.657L166.781,255.098ZM240.431,224.892C240.431,222.157 239.623,220.79 238.007,220.79C237.261,220.79 236.267,221.909 235.024,224.146C233.657,226.383 232.724,227.689 232.227,228.062C234.216,228.435 235.832,228.621 237.075,228.621C239.312,228.621 240.431,227.378 240.431,224.892ZM225.142,207.179C225.266,208.794 224.52,209.602 222.904,209.602C221.288,209.602 220.48,208.857 220.48,207.365C220.48,206.495 221.288,206.06 222.904,206.06C223.65,206.06 224.396,206.433 225.142,207.179ZM184.681,145.275L184.681,144.529C184.681,141.795 184.121,140.427 183.003,140.427L181.884,140.987L184.681,145.275ZM193.631,141.36C193.382,141.235 193.04,141.049 192.605,140.8C192.17,140.552 191.704,140.303 191.207,140.054L189.715,140.8L189.715,141.36L189.902,143.224C191.145,143.224 192.388,142.603 193.631,141.36ZM169.951,136.139L166.967,136.139L166.967,133.156L170.697,134.088L169.951,136.139Z" style="fill:none;stroke:black;stroke-width:0.84px;"/>
    </g>
    <g transform="matrix(1.43717,0,0,1.43717,-261.535,-15.9122)">
        <path d="M205.569,60.244C205.469,58.24 205.469,56.236 205.369,54.031C208.776,54.232 213.185,53.931 214.488,53.33C216.592,52.328 216.793,51.626 215.189,50.724C214.187,50.223 212.484,50.123 211.181,50.524C208.676,51.326 207.072,51.626 205.369,51.726C205.269,49.822 205.369,47.518 205.569,45.914C209.477,45.413 212.183,45.113 214.388,44.712C216.191,44.411 216.793,44.812 216.893,47.818C216.993,50.724 216.993,52.628 216.793,55.234C216.492,59.242 215.289,59.743 214.287,59.242C213.385,58.641 211.582,58.841 205.569,60.244ZM204.868,43.309C204.267,43.008 203.365,42.608 201.862,42.207C198.855,41.305 198.054,42.207 199.457,43.91C200.559,45.413 201.06,49.121 201.361,60.845C201.661,67.86 200.459,85.396 199.356,88.302C197.853,92.11 198.054,94.415 200.258,98.623C201.06,100.227 202.764,100.126 203.265,98.623C203.866,96.82 204.066,95.116 204.567,87.2C205.369,76.277 205.569,70.164 205.569,63.25C210.68,61.947 214.889,61.947 215.49,62.348C216.692,63.551 218.696,63.451 219.498,62.048C220.4,60.344 220.901,57.939 221.202,53.33C221.502,48.921 221.803,47.417 223.005,45.514C224.108,43.81 223.807,43.309 220.5,41.906C217.594,40.804 216.793,40.804 215.089,41.605C213.887,42.307 209.377,43.008 204.868,43.309ZM243.147,57.338C246.654,57.438 248.057,57.338 256.174,56.336C257.376,71.467 257.176,83.893 256.474,90.707C256.274,93.012 255.372,93.412 248.959,91.709C245.953,90.907 245.251,91.709 248.157,93.713C251.464,96.218 253.869,99.024 255.272,101.83C256.274,103.734 257.176,103.834 258.98,101.73C262.487,97.721 263.589,95.016 263.088,89.104C262.286,77.78 261.886,72.469 261.785,70.064C260.884,46.315 260.884,45.012 261.986,43.008C263.088,40.804 262.587,39.601 257.777,37.697C254.47,36.495 253.368,36.395 251.464,37.397C248.658,38.9 245.452,39.601 241.744,39.702C237.034,37.998 236.633,38.9 237.836,41.004C239.239,43.509 239.84,46.816 239.539,53.33C239.339,56.035 239.64,56.937 240.341,57.939C241.544,59.242 242.345,59.142 243.147,57.338ZM243.347,47.718C243.347,45.814 243.247,44.01 243.147,42.307C247.857,41.505 249.56,41.305 251.464,41.205C254.07,41.104 254.971,41.806 255.272,44.912C255.573,47.918 255.773,50.824 255.973,53.63C252.266,53.73 249.56,53.931 243.448,54.733C243.448,53.229 243.448,51.726 243.347,50.323C245.752,50.424 249.66,50.023 251.264,49.522C253.067,48.82 253.067,47.518 251.965,46.916C250.161,45.914 249.159,46.115 243.347,47.718ZM234.529,82.189C231.122,81.688 231.122,82.49 232.926,83.592C237.636,86.699 242.245,89.404 243.848,90.005C245.552,90.707 245.853,90.406 245.752,88.803C245.652,84.995 243.047,83.592 234.529,82.189ZM227.915,75.776C225.41,76.377 223.005,76.979 219.197,77.379C218.496,75.976 217.895,72.068 217.694,69.162C219.398,68.962 221.101,68.561 228.016,67.258C228.016,69.563 228.016,72.369 227.915,75.776ZM231.423,66.557C234.93,65.755 237.034,65.355 239.64,65.054C241.443,64.853 242.145,65.355 241.143,69.764C240.141,74.073 239.64,74.574 238.738,74.373C237.335,73.972 235.531,73.872 231.122,74.974C231.222,72.469 231.323,69.864 231.423,66.557ZM228.016,61.647C228.116,62.649 228.116,63.751 228.016,64.954C224.709,65.555 220.901,66.156 216.993,66.858C211.582,65.455 211.281,66.657 212.584,68.361C213.385,69.263 214.087,70.866 214.889,73.972C216.492,79.684 217.093,81.287 217.795,81.087C218.296,80.987 218.696,80.486 218.997,79.484C220.6,79.484 222.304,79.283 225.11,78.782C221.602,83.793 216.692,88.202 210.179,92.11C208.676,93.012 208.976,94.114 210.88,93.513C216.191,92.11 223.005,87.801 227.615,81.788C227.414,85.296 226.913,89.104 226.312,92.11C225.611,94.815 226.012,95.918 227.815,99.425C228.417,100.527 229.519,100.527 230.521,97.922C231.222,95.817 231.423,94.214 231.222,89.204C231.022,84.694 231.022,81.488 231.122,77.78C236.633,76.678 239.239,77.079 239.64,78.281C239.94,79.283 240.542,79.484 241.343,78.582C242.345,77.48 242.947,76.477 245.051,71.668C246.053,69.263 246.754,68.261 247.556,67.359C248.859,65.655 248.759,64.553 246.554,63.35C243.448,61.647 241.644,61.446 240.441,62.048C239.74,62.449 238.537,62.849 231.423,64.252C231.523,62.95 231.523,62.148 231.523,61.046C233.026,60.745 234.529,60.344 236.433,59.843C238.838,59.041 239.038,58.14 237.936,57.238C237.435,56.737 236.633,56.837 231.723,57.739C231.924,55.534 232.024,54.833 232.425,54.031C233.126,52.328 232.625,51.526 229.519,50.424C226.012,49.321 225.21,50.424 226.513,51.927C227.515,53.229 227.815,54.632 227.915,58.44C225.21,59.041 223.607,59.442 222.605,59.643C220.4,60.044 220.5,60.645 221.703,61.146C223.106,61.747 225.21,62.048 228.016,61.647ZM232.625,72.068C231.623,73.471 232.224,73.972 233.527,72.87C235.231,71.467 235.932,70.766 237.034,70.164C238.537,69.263 238.337,68.361 235.732,66.958C234.93,66.457 234.629,66.858 234.73,67.459C234.83,68.361 234.329,69.463 232.625,72.068ZM219.799,70.365C220.701,71.768 221.402,73.171 222.304,74.574C223.106,75.876 225.11,75.375 225.511,73.872C226.012,72.169 225.11,71.467 221.903,69.563C220.2,68.561 219.197,69.263 219.799,70.365ZM221.502,29.581C221.302,27.877 221.402,25.873 221.602,24.67C221.903,22.867 221.001,21.564 214.889,20.261C211.381,19.56 210.68,21.564 212.684,22.867C214.388,24.069 216.191,27.276 217.093,29.981C209.778,30.683 203.565,31.084 195.849,31.585C193.845,31.685 193.544,32.988 196.551,34.391C200.659,36.294 201.26,36.294 204.567,35.493C207.674,34.591 212.784,33.789 217.895,33.188C219.097,36.996 220.6,40.102 221.602,39.802C222.805,39.401 223.206,37.998 222.103,32.687C228.417,31.986 232.725,31.485 238.036,30.984C237.034,34.19 236.132,36.294 234.83,38.9C234.128,40.303 235.231,40.904 236.934,39.2C238.237,37.798 240.942,33.99 242.746,30.583C246.754,30.382 250.161,30.382 254.27,30.482C267.597,30.984 267.898,29.38 263.589,26.274C261.184,24.57 260.282,24.47 254.27,25.572C251.865,25.973 248.458,26.474 244.65,26.975C247.055,21.965 247.556,21.063 248.358,20.261C249.46,19.159 249.36,18.257 244.951,16.153C240.642,14.049 239.539,15.351 240.341,16.955C241.243,18.858 241.143,20.261 239.038,27.677C233.126,28.478 226.713,29.08 221.502,29.581Z" style="fill:rgb(0,73,0);fill-rule:nonzero;stroke:rgb(0,73,0);stroke-width:1.59px;stroke-linejoin:miter;"/>
    </g>
</svg>
